<svg width="58" height="59" viewBox="0 0 58 59" fill="none" xmlns="http://www.w3.org/2000/svg">
<path d="M29.3625 3.51514C22.2847 3.51514 14.491 6.19764 12.8688 14.8976C12.6377 15.8265 13.34 16.2661 13.92 16.3839L21.0975 17.0726C21.7953 17.0726 22.2802 16.3929 22.5113 15.6951C23.0913 12.6773 25.6378 11.1639 28.42 11.1639C29.9289 11.1639 31.6599 11.7665 32.5888 13.1576C33.631 14.6665 33.4225 16.7464 33.4225 18.4864V19.5376C29.1314 19.9998 23.5625 20.3351 19.5025 22.0751C14.8625 24.0462 11.6 28.1153 11.6 34.1464C11.6 41.8042 16.4711 45.6376 22.62 45.6376C27.84 45.6376 30.74 44.3417 34.8 40.1639C36.1911 42.135 36.6397 43.0775 39.0775 45.1664C39.6575 45.5153 40.3553 45.3748 40.8175 44.9126V45.0576C42.3264 43.7798 44.9999 41.3329 46.5088 40.0551C47.0888 39.7062 46.971 38.8951 46.5088 38.3151C45.1177 36.4573 43.7175 34.9439 43.7175 31.4639V19.9726C43.7175 15.1015 44.0891 10.5748 40.4913 7.21264C37.5913 4.43045 32.9603 3.51514 29.3625 3.51514ZM31.32 25.5551H33.2775V27.1864C33.2775 29.9686 33.3999 32.3928 32.0088 34.9439C30.8488 37.0328 28.9864 38.3151 26.8975 38.3151C24.1153 38.3151 22.4025 36.2353 22.4025 32.9864C22.4025 27.5353 26.68 25.904 31.32 25.5551ZM51.7288 42.4839C49.871 42.4839 47.6597 42.9551 46.0375 44.1151C45.5753 44.464 45.6025 44.9126 46.1825 44.9126C48.0403 44.6815 52.1864 44.1242 52.9975 45.1664C53.6953 46.0953 52.2091 50.0148 51.5113 51.8726C51.2802 52.4526 51.7378 52.584 52.2 52.2351C55.3311 49.5662 56.1513 44.1242 55.5713 43.4264C55.2224 42.8464 53.5866 42.4839 51.7288 42.4839ZM2.53752 43.5351C2.18861 43.5351 1.96658 44.1287 2.42877 44.4776C9.38877 50.7398 18.5691 54.5551 28.8913 54.5551C36.2002 54.5551 44.651 52.2487 50.5688 47.9576C51.4977 47.2598 50.7002 46.0817 49.7713 46.5439C43.1602 49.3261 36.0778 50.7126 29.58 50.7126C19.9511 50.7126 10.6575 48.0437 3.11752 43.7526C2.88642 43.5215 2.65533 43.5351 2.53752 43.5351Z" fill="#605557"/>
</svg>
