<svg width="64" height="65" viewBox="0 0 64 65" fill="none" xmlns="http://www.w3.org/2000/svg">
<path d="M53.2801 13.8202C48.1851 9.72019 40.1251 9.02519 39.7801 9.00019C39.2451 8.95519 38.7351 9.25519 38.5151 9.75019C38.4951 9.78019 38.3201 10.1852 38.1251 10.8152C41.4951 11.3852 45.6351 12.5302 49.3801 14.8552C49.9801 15.2252 50.1651 16.0152 49.7951 16.6152C49.5501 17.0102 49.1351 17.2252 48.7051 17.2252C48.4751 17.2252 48.2401 17.1602 48.0301 17.0302C41.5901 13.0352 33.5501 12.8352 32.0001 12.8352C30.4501 12.8352 22.4051 13.0352 15.9701 17.0302C15.3701 17.4052 14.5801 17.2202 14.2101 16.6202C13.8351 16.0152 14.0201 15.2302 14.6201 14.8552C18.3651 12.5352 22.5051 11.3852 25.8751 10.8202C25.6801 10.1852 25.5051 9.78519 25.4901 9.75019C25.2651 9.25519 24.7601 8.94519 24.2201 9.00019C23.8751 9.02519 15.8151 9.72019 10.6501 13.8752C7.95506 16.3702 2.56006 30.9502 2.56006 43.5552C2.56006 43.7802 2.62006 43.9952 2.73006 44.1902C6.45006 50.7302 16.6051 52.4402 18.9201 52.5152C18.9301 52.5152 18.9451 52.5152 18.9601 52.5152C19.3701 52.5152 19.7551 52.3202 19.9951 51.9902L22.3351 48.7702C16.0201 47.1402 12.7951 44.3702 12.6101 44.2052C12.0801 43.7402 12.0301 42.9302 12.5001 42.4002C12.9651 41.8702 13.7751 41.8202 14.3051 42.2852C14.3801 42.3552 20.3201 47.3952 32.0001 47.3952C43.7001 47.3952 49.6401 42.3352 49.7001 42.2852C50.2301 41.8252 51.0351 41.8702 51.5051 42.4052C51.9701 42.9352 51.9201 43.7402 51.3901 44.2052C51.2051 44.3702 47.9801 47.1402 41.6651 48.7702L44.0051 51.9902C44.2451 52.3202 44.6301 52.5152 45.0401 52.5152C45.0551 52.5152 45.0701 52.5152 45.0801 52.5152C47.3951 52.4402 57.5501 50.7302 61.2701 44.1902C61.3801 43.9952 61.4401 43.7802 61.4401 43.5552C61.4401 30.9502 56.0451 16.3702 53.2801 13.8202ZM23.6801 38.4352C21.2051 38.4352 19.2001 36.1452 19.2001 33.3152C19.2001 30.4852 21.2051 28.1952 23.6801 28.1952C26.1551 28.1952 28.1601 30.4852 28.1601 33.3152C28.1601 36.1452 26.1551 38.4352 23.6801 38.4352ZM40.3201 38.4352C37.8451 38.4352 35.8401 36.1452 35.8401 33.3152C35.8401 30.4852 37.8451 28.1952 40.3201 28.1952C42.7951 28.1952 44.8001 30.4852 44.8001 33.3152C44.8001 36.1452 42.7951 38.4352 40.3201 38.4352Z" fill="#605557"/>
</svg>
