<svg width="72" height="73" viewBox="0 0 72 73" fill="none" xmlns="http://www.w3.org/2000/svg">
<path d="M23.9953 7.23511C14.7337 7.23511 7.19995 14.7758 7.19995 24.0398V48.0398C7.19995 57.3014 14.7406 64.8351 24.0046 64.8351H48.0046C57.2662 64.8351 64.7999 57.2944 64.7999 48.0304V24.0304C64.7999 14.7688 57.2593 7.23511 47.9953 7.23511H23.9953ZM52.7999 16.8351C54.1247 16.8351 55.1999 17.9103 55.1999 19.2351C55.1999 20.5599 54.1247 21.6351 52.7999 21.6351C51.4751 21.6351 50.3999 20.5599 50.3999 19.2351C50.3999 17.9103 51.4751 16.8351 52.7999 16.8351ZM36 21.6351C43.9415 21.6351 50.3999 28.0935 50.3999 36.0351C50.3999 43.9767 43.9415 50.4351 36 50.4351C28.0583 50.4351 21.6 43.9767 21.6 36.0351C21.6 28.0935 28.0583 21.6351 36 21.6351ZM36 26.4351C33.4539 26.4351 31.0121 27.4465 29.2117 29.2469C27.4114 31.0472 26.4 33.489 26.4 36.0351C26.4 38.5812 27.4114 41.023 29.2117 42.8233C31.0121 44.6237 33.4539 45.6351 36 45.6351C38.546 45.6351 40.9878 44.6237 42.7882 42.8233C44.5885 41.023 45.5999 38.5812 45.5999 36.0351C45.5999 33.489 44.5885 31.0472 42.7882 29.2469C40.9878 27.4465 38.546 26.4351 36 26.4351Z" fill="#605557"/>
</svg>
