<svg width="60" height="61" viewBox="0 0 60 61" fill="none" xmlns="http://www.w3.org/2000/svg">
<circle cx="30" cy="30.0352" r="30" fill="#605557"/>
<path d="M30 3.75391C15.5091 3.75391 3.71875 15.5442 3.71875 30.0352C3.71875 44.5261 15.5091 56.3164 30 56.3164C44.4909 56.3164 56.2812 44.5261 56.2812 30.0352C56.2812 15.5442 44.4909 3.75391 30 3.75391ZM30 5.56641C43.4922 5.56641 54.4688 16.5429 54.4688 30.0352C54.4688 43.5274 43.4922 54.5039 30 54.5039C16.5078 54.5039 5.53125 43.5274 5.53125 30.0352C5.53125 16.5429 16.5078 5.56641 30 5.56641ZM30.3363 8.34888C26.8041 8.27424 23.2832 9.09263 20.1498 10.749C19.7067 10.9837 19.5381 11.5316 19.7728 11.9739C19.9278 12.2693 20.2257 12.4435 20.5392 12.4553C20.6933 12.4617 20.85 12.4279 20.9959 12.3509C24.8094 10.3354 29.2559 9.67921 33.5135 10.503C34.0137 10.5963 34.4803 10.2773 34.5755 9.78613C34.6716 9.29585 34.3498 8.82023 33.8586 8.72235C32.6928 8.4967 31.5137 8.37376 30.3363 8.34888ZM37.4536 9.83569C37.1005 9.83922 36.7661 10.0488 36.6234 10.3968C36.4322 10.859 36.6532 11.3879 37.1172 11.5792C37.7534 11.8402 38.3845 12.1404 38.9935 12.473C39.1213 12.5428 39.2558 12.5782 39.3917 12.5828C39.7243 12.5945 40.0515 12.4228 40.2219 12.1119C40.462 11.6724 40.3003 11.1228 39.8608 10.8835C39.1956 10.5192 38.5036 10.1902 37.8058 9.90295C37.6902 9.8556 37.5712 9.83452 37.4536 9.83569ZM13.6875 16.4414C12.1886 16.4414 10.9688 17.6612 10.9688 19.1602V38.1914C10.9688 40.6899 13.0015 42.7227 15.5 42.7227H35.4375C37.936 42.7227 39.9688 40.6899 39.9688 38.1914V37.2852H40.4219C46.1684 37.2852 50.8438 32.6098 50.8438 26.8633C50.8438 21.1167 46.1684 16.4414 40.4219 16.4414H13.6875ZM13.6875 18.2539H40.4219C45.1688 18.2539 49.0312 22.1163 49.0312 26.8633C49.0312 31.6102 45.1688 35.4727 40.4219 35.4727H39.0625C38.5613 35.4727 38.1562 35.8778 38.1562 36.3789V38.1914C38.1562 39.6903 36.9364 40.9102 35.4375 40.9102H15.5C14.0011 40.9102 12.7812 39.6903 12.7812 38.1914V19.1602C12.7812 18.6608 13.1873 18.2539 13.6875 18.2539ZM39.0625 20.9727C38.5613 20.9727 38.1562 21.3787 38.1562 21.8789V31.8477C38.1562 32.3488 38.5613 32.7539 39.0625 32.7539H40.4219C43.6699 32.7539 46.3125 30.1113 46.3125 26.8633C46.3125 23.6153 43.6699 20.9727 40.4219 20.9727H39.0625ZM22.2969 22.7852C19.5491 22.7852 17.3125 25.0209 17.3125 27.7695C17.3125 31.2523 24.0974 37.2914 24.8723 37.9684C25.0426 38.1179 25.2558 38.1914 25.4688 38.1914C25.6817 38.1914 25.8949 38.1179 26.0652 37.9684C26.8401 37.2914 33.625 31.2523 33.625 27.7695C33.625 25.0209 31.3884 22.7852 28.6406 22.7852C27.4707 22.7852 26.356 23.1987 25.4688 23.9427C24.5815 23.1987 23.4668 22.7852 22.2969 22.7852ZM39.9688 22.7852H40.4219C42.6703 22.7852 44.5 24.6149 44.5 26.8633C44.5 29.1117 42.6703 30.9414 40.4219 30.9414H39.9688V22.7852ZM22.2969 24.5977C23.2512 24.5977 24.149 25.0364 24.7607 25.8013C25.1051 26.2317 25.8315 26.2317 26.1768 25.8013C26.7885 25.0364 27.6863 24.5977 28.6406 24.5977C30.3897 24.5977 31.8125 26.0205 31.8125 27.7695C31.8125 29.6346 28.1413 33.6277 25.4688 36.0692C22.7962 33.6277 19.125 29.6355 19.125 27.7695C19.125 26.0205 20.5478 24.5977 22.2969 24.5977ZM21.2242 45.8025C20.8731 45.7636 20.5174 45.9344 20.3339 46.2627L19.4489 47.8451C19.2042 48.2828 19.3599 48.8341 19.7976 49.0788C20.2344 49.3226 20.7866 49.1669 21.0313 48.7301L21.9163 47.1477C22.161 46.71 22.0053 46.1587 21.5676 45.914C21.4582 45.8528 21.3413 45.8154 21.2242 45.8025ZM38.8235 45.8025C38.7065 45.8154 38.5896 45.8528 38.4802 45.914C38.0424 46.1587 37.8868 46.71 38.1315 47.1477L39.0165 48.7301C39.2603 49.1669 39.8125 49.3226 40.2502 49.0788C40.6879 48.8341 40.8436 48.2828 40.5989 47.8451L39.7139 46.2627C39.5303 45.9344 39.1746 45.7636 38.8235 45.8025ZM25.3555 47.546C25.0067 47.5927 24.6971 47.8415 24.5979 48.2044L24.12 49.9532C23.9868 50.4362 24.2706 50.9324 24.7537 51.0648C24.8307 51.0847 24.9076 51.0975 24.9855 51.0984C25.3861 51.102 25.7564 50.8371 25.867 50.4311L26.3449 48.6823C26.4772 48.2002 26.1943 47.7013 25.7112 47.569C25.5925 47.5366 25.4717 47.5304 25.3555 47.546ZM34.7472 47.5902C34.6308 47.5733 34.51 47.5786 34.3896 47.6097C33.9057 47.7375 33.6158 48.2311 33.7436 48.7159L34.2038 50.47C34.3098 50.8751 34.6724 51.1426 35.0711 51.1462C35.1518 51.1462 35.2303 51.1369 35.3101 51.1161C35.7949 50.9883 36.0848 50.4929 35.9561 50.0081L35.4959 48.2557C35.4008 47.8921 35.0963 47.6408 34.7472 47.5902ZM30 48.1602C29.4988 48.1602 29.0938 48.5653 29.0938 49.0664V50.8789C29.0938 51.3801 29.4988 51.7852 30 51.7852C30.5012 51.7852 30.9062 51.3801 30.9062 50.8789V49.0664C30.9062 48.5653 30.5012 48.1602 30 48.1602Z" fill="#FFA9A9"/>
</svg>
