<svg xmlns="http://www.w3.org/2000/svg" width="24" height="24" fill="#605557" font-size="30"><g fill="#605557" clip-path="url(#a)"><path d="M11.407 2.192 7.065 10.73a1.44 1.44 0 0 0 .243 1.649l4.2 4.389a.6.6 0 0 0 .867 0l4.2-4.39a1.44 1.44 0 0 0 .244-1.648l-4.343-8.538a.6.6 0 0 0-1.07 0ZM1.03 8.543l10.717 10.819a.48.48 0 0 1-.238.806l-5.355 1.186a2.4 2.4 0 0 1-2.823-1.673L.227 9.015c-.139-.478.452-.826.802-.472ZM23.02 8.482l-9.53 9.53a.48.48 0 0 0 .008.688l1.745 1.655c.156.148.346.256.553.314l1.912.535a2.4 2.4 0 0 0 2.947-1.626l3.164-10.62c.142-.477-.447-.829-.8-.476Z"></path></g><defs><clipPath id="a"><path fill="#fff" d="M0 0h24v24H0z"></path></clipPath></defs></svg>
