<svg width="64" height="65" viewBox="0 0 64 65" fill="none" xmlns="http://www.w3.org/2000/svg">
<path d="M52.48 5.15515H11.52C7.99103 5.15515 5.12 8.02619 5.12 11.5552V52.5152C5.12 56.0441 7.99103 58.9151 11.52 58.9151H52.48C56.009 58.9151 58.88 56.0441 58.88 52.5152V11.5552C58.88 8.02619 56.009 5.15515 52.48 5.15515ZM47.3677 28.6086C47.0771 28.6355 46.7827 28.6534 46.4845 28.6534C43.127 28.6534 40.1766 26.9267 38.4602 24.3167C38.4602 31.1635 38.4602 38.9536 38.4602 39.0841C38.4602 45.1116 33.5731 49.9987 27.5456 49.9987C21.5181 49.9987 16.631 45.1116 16.631 39.0841C16.631 33.0566 21.5181 28.1695 27.5456 28.1695C27.7734 28.1695 27.9962 28.19 28.2202 28.2041V33.5827C27.9962 33.5558 27.776 33.5148 27.5456 33.5148C24.4685 33.5148 21.975 36.0083 21.975 39.0854C21.975 42.1625 24.4685 44.656 27.5456 44.656C30.6227 44.656 33.3402 42.2316 33.3402 39.1545C33.3402 39.0329 33.3939 14.0742 33.3939 14.0742H38.5344C39.0182 18.6707 42.729 22.2982 47.3677 22.631V28.6086Z" fill="#605557"/>
</svg>
