<svg width="64" height="65" viewBox="0 0 64 65" fill="none" xmlns="http://www.w3.org/2000/svg">
<path d="M11.52 5.15515C7.9872 5.15515 5.12 8.02235 5.12 11.5552V52.5152C5.12 56.048 7.9872 58.9151 11.52 58.9151H52.48C56.0128 58.9151 58.88 56.048 58.88 52.5152V11.5552C58.88 8.02235 56.0128 5.15515 52.48 5.15515H11.52ZM19.2 10.2752H22.2725L24.32 15.3952L26.3675 10.2752H29.44L25.6 19.2352V24.3552H23.04V19.2227C22.272 17.1619 19.7248 11.568 19.2 10.2752ZM32 14.1152C33.1392 14.1152 34.2657 14.4598 34.9825 15.3302C35.5329 15.9574 35.84 16.969 35.84 18.3002V20.1702C35.84 21.5014 35.5851 22.423 35.0475 23.0502C34.3307 23.9078 33.1392 24.3552 32 24.3552C30.8608 24.3552 29.6968 23.9078 28.98 23.0502C28.4296 22.423 28.16 21.5014 28.16 20.1702V18.3127C28.16 16.9815 28.4543 15.9574 29.0175 15.3302C29.7343 14.4598 30.7072 14.1152 32 14.1152ZM37.12 14.1152H39.68V21.7952C39.744 22.1408 40.1144 22.2952 40.46 22.2952C40.9848 22.2952 41.6512 21.6811 42.24 21.0027V14.1152H44.8V24.3552H42.24V22.5877C41.2032 23.5989 40.3198 24.3561 39.155 24.3177C38.3102 24.2921 37.7219 23.9846 37.4275 23.3702C37.2483 23.0118 37.12 22.435 37.12 21.5902V14.1152ZM32 16.1877C31.824 16.1877 31.6555 16.2263 31.5025 16.2927C31.3495 16.3591 31.211 16.4543 31.095 16.5727C30.979 16.6911 30.885 16.8317 30.82 16.9877C30.755 17.1437 30.72 17.316 30.72 17.4952V21.0902C30.72 21.4486 30.863 21.7759 31.095 22.0127C31.211 22.1311 31.3495 22.2263 31.5025 22.2927C31.6555 22.3591 31.824 22.3977 32 22.3977C32.176 22.3977 32.3445 22.3591 32.4975 22.2927C32.9565 22.0935 33.28 21.6278 33.28 21.0902V17.4952C33.28 16.7784 32.704 16.1877 32 16.1877ZM31.9875 28.1952H32.0125C32.0125 28.1952 40.6006 28.1956 46.335 28.6052C47.1414 28.6948 48.8834 28.7077 50.445 30.3077C51.6738 31.5109 52.07 34.2752 52.07 34.2752C52.07 34.2752 52.48 36.2343 52.48 39.4727V42.5051C52.48 45.7435 52.07 47.7027 52.07 47.7027C52.07 47.7027 51.6738 50.4669 50.445 51.6702C48.8834 53.2701 47.1414 53.2831 46.335 53.3727C40.6006 53.7822 32 53.7952 32 53.7952C32 53.7952 21.3493 53.6923 18.0725 53.3852C17.1637 53.2188 15.1166 53.2699 13.555 51.6827C12.3262 50.4667 11.93 47.7027 11.93 47.7027C11.93 47.7027 11.52 45.7435 11.52 42.5051V39.4727C11.52 36.2343 11.93 34.2752 11.93 34.2752C11.93 34.2752 12.3262 31.5109 13.555 30.3077C15.1166 28.7077 16.8586 28.6948 17.665 28.6052C23.3994 28.1956 31.9875 28.1952 31.9875 28.1952ZM15.36 33.3152V35.8477H17.92V48.6752H20.48V35.8477H23.04V33.3152H15.36ZM32 33.3152V48.6752H34.56V47.0751C35.3677 48.0748 36.4198 48.6752 37.28 48.6752C38.2426 48.6752 39.0824 48.1572 39.405 47.1651C39.5573 46.6288 39.6698 46.1279 39.68 44.9952V41.4752C39.68 40.2105 39.5088 39.2578 39.3475 38.7201C39.0249 37.7205 38.2438 37.1616 37.28 37.1552C36.0256 37.1462 35.52 37.7952 34.56 38.9151V33.3152H32ZM23.04 37.1552V45.7127C23.04 46.6368 23.1686 47.2569 23.335 47.6627C23.6166 48.3206 24.1908 48.6752 25.01 48.6752C25.9444 48.6752 27.1488 48.0169 28.16 46.9277V48.6752H30.72V37.1552H28.16V45.1801C27.5968 45.9277 26.777 46.4851 26.265 46.4851C25.9322 46.4851 25.664 46.345 25.6 45.9776V37.1552H23.04ZM44.8375 37.1552C43.5473 37.1552 42.5396 37.5609 41.81 38.3277C41.2724 38.8934 40.96 39.8183 40.96 41.0177V44.9426C40.96 46.1343 41.3037 46.9683 41.84 47.5276C42.5709 48.2944 43.5765 48.6752 44.8975 48.6752C46.2172 48.6752 47.2561 48.2742 47.955 47.4602C48.2622 47.1005 48.4592 46.6957 48.545 46.2452C48.568 46.0416 48.64 45.4892 48.64 44.8352H46.08V45.8577C46.08 46.4516 45.5066 46.9327 44.8 46.9327C44.0934 46.9327 43.52 46.4503 43.52 45.8577V43.5551H48.64V42.8176V40.9677C48.64 39.7709 48.3461 38.8947 47.8175 38.3277C47.1097 37.5609 46.1047 37.1552 44.8375 37.1552ZM44.8 39.0077C45.5066 39.0077 46.08 39.49 46.08 40.0826V41.7826H43.52V40.0826C43.52 39.4887 44.0934 39.0077 44.8 39.0077ZM36.1225 39.3902C36.8201 39.3902 37.12 39.8188 37.12 41.1552V44.6752C37.12 46.0115 36.8201 46.4726 36.1225 46.4726C35.7244 46.4726 34.9645 46.1996 34.56 45.7952V40.1952C34.9645 39.7958 35.7244 39.3902 36.1225 39.3902Z" fill="#605557"/>
</svg>
